<?xml version="1.0" encoding="utf-8"?>
<!-- Generator: Adobe Illustrator 24.0.0, SVG Export Plug-In . SVG Version: 6.00 Build 0)  -->
<svg version="1.1" id="Layer_1" xmlns="http://www.w3.org/2000/svg" xmlns:xlink="http://www.w3.org/1999/xlink" x="0px" y="0px"
	 viewBox="0 0 471.79 92.76" style="enable-background:new 0 0 471.79 92.76;" xml:space="preserve">
<style type="text/css">
	.st0{fill:#FFFFFF;}
</style>
<path class="st0" d="M143.59,16.14c4.74,0,8.58-3.33,8.58-8.07c0-4.74-3.83-8.07-8.58-8.07c-4.74,0-8.58,3.33-8.58,8.07
	C135.01,12.82,138.85,16.14,143.59,16.14z M357.42,8.07c0-4.74,3.83-8.07,8.58-8.07c4.74,0,8.58,3.33,8.58,8.07
	c0,4.74-3.83,8.07-8.58,8.07C361.25,16.14,357.42,12.82,357.42,8.07z M379.41,67.3v0.71h-26.44V67.3c3.76-0.69,5.18-1.88,5.24-7.33
	c0-0.17,0-0.28,0-0.34V34.91c0-3.53-1.01-4.84-2.72-6.05c-0.4-0.4-1.31-1.01-1.82-1.21v-0.5l20.08-5.95l0.2,0.3v38.14h0.01
	C373.96,65.29,375.78,66.6,379.41,67.3z M102.22,60.24c1.82,0,3.33-0.4,4.64-1.11v0.4c-2.22,4.54-6.16,9.18-13.93,9.18
	c-8.17,0-12.77-4.44-12.77-13.52V34.91c0-3.53-0.96-4.84-2.68-6.05c-0.4-0.4-1.31-1.01-1.82-1.21v-0.5l20.08-5.95l0.2,0.3l0,30.88
	C95.96,58.02,97.57,60.24,102.22,60.24z M296.85,67.3v0.71v0h-26.44v0h-0.76v0h-25.63v0V67.3c3.17-0.58,4.51-1.89,4.63-6.19
	c0.01-0.22,0.01-0.44,0.01-0.67V37.13c0-5.25-2.12-7.47-6.76-7.47c-1.61,0-3.43,0.4-4.74,0.91v-0.3c2.83-4.54,8.98-8.88,15.54-8.88
	c8.88,0,11.81,5.65,11.81,13.52V60.2c0,0.46,0.01,0.88,0.03,1.28c0,0.07,0.01,0.14,0.01,0.2c0.02,0.4,0.05,0.78,0.1,1.13
	c0.52,2.52,2.76,4.42,5.43,4.42c2.78,0,5.08-2.05,5.48-4.72c0.03-0.26,0.05-0.54,0.06-0.83c0-0.02,0-0.03,0-0.05
	c0,0.02,0,0.03,0,0.05h0.04c0.03-0.46,0.04-0.94,0.04-1.48V34.91c0-3.53-1.01-4.84-2.72-6.05c-0.4-0.4-1.31-1.01-1.82-1.21v-0.5
	l20.08-5.95l0.2,0.3v38.95c0,0.23,0.01,0.45,0.01,0.67h0C291.77,65.52,293.57,66.66,296.85,67.3z M274.86,8.07
	c0-4.74,3.83-8.07,8.58-8.07c4.74,0,8.58,3.33,8.58,8.07c0,4.74-3.83,8.07-8.58,8.07C278.69,16.14,274.86,12.82,274.86,8.07z
	 M183.19,67.3v0.71v0h-25.73v0h-0.45v0h-26.44v0h-5.84h-0.47h-15.29v-33.1c0-3.53-1.01-4.84-2.72-6.05c-0.4-0.4-1.31-1.01-1.82-1.21
	v-0.5l20.08-5.95l0.2,0.3V61c0,0.04,0,0.29,0,0.67h0c0,1,0.27,1.94,0.73,2.75c0.96,1.67,2.75,2.8,4.82,2.8
	c2.63,0,4.82-1.83,5.4-4.28c0.1-0.41,0.15-0.83,0.15-1.27h0.01c0-0.78,0-1.34,0-1.48V34.91c0-3.53-1.01-4.84-2.72-6.05
	c-0.4-0.4-1.31-1.01-1.82-1.21v-0.5l20.08-5.95l0.2,0.3V61c0,0.06,0,0.53,0,1.22c0.05,0.45,0.15,0.89,0.29,1.31
	c0.76,2.15,2.81,3.69,5.23,3.69c3.07,0,5.55-2.48,5.55-5.55h0.02c0.03-0.46,0.04-0.94,0.04-1.48V34.91c0-3.53-1.01-4.84-2.72-6.05
	c-0.4-0.4-1.31-1.01-1.82-1.21v-0.5l20.08-5.95l0.2,0.3v38.95c0,0.23,0.01,0.45,0.01,0.67C178.58,65.41,179.92,66.73,183.19,67.3z
	 M239.68,67.3v0.71v0h-25.73v0h-0.79v0h-25.63v0V67.3c3.17-0.58,4.51-1.89,4.63-6.19c0.01-0.22,0.01-0.44,0.01-0.67V37.13
	c0-5.25-2.12-7.47-6.76-7.47c-1.61,0-3.43,0.4-4.74,0.91v-0.3c2.83-4.54,8.98-8.88,15.54-8.88c8.88,0,11.81,5.65,11.81,13.52V60.2
	c0,0.54,0.02,1.02,0.04,1.48h0.01c0,0.18,0.01,0.35,0.03,0.52c0,0.02,0,0.04,0,0.06c0.29,2.79,2.65,4.97,5.52,4.97
	c2.75,0,5.02-2,5.47-4.62c0.03-0.29,0.06-0.6,0.07-0.93c0-0.03,0-0.06,0.01-0.09c0.02-0.43,0.04-0.89,0.04-1.39V34.91
	c0-3.53-1.01-4.84-2.72-6.05c-0.4-0.4-1.31-1.01-1.82-1.21v-0.5l20.08-5.95l0.2,0.3v38.95c0,0.23,0.01,0.45,0.01,0.67
	C235.08,65.41,236.42,66.73,239.68,67.3z M424.42,62.11c1.01,0,2.02-0.4,2.52-0.71v0.4c-1.31,3.43-5.15,7.06-11.5,7.06
	c-3.82,0-6.6-1.25-8.33-3.69c-1.37-1.94-2.07-4.62-2.07-8.02V47.07c0-1.25-0.06-2.41-0.15-3.53l-2.18,0.81
	c-1.72,0.71-3.94,1.61-4.94,3.03c-1.01,1.51-1.61,3.83-1.61,6.16c0,6.26,1.41,8.27,4.44,8.27c0.53,0,1.14-0.09,1.68-0.24
	c0.58-0.15,1.09-0.36,1.35-0.57v0.4c-0.52,1.56-2.46,4.19-5.49,5.88c-1.69,0.94-3.7,1.59-6.01,1.59c-7.57,0-11.5-5.05-11.5-11.3
	c0-2.26,0.51-4.19,1.24-5.73c1.88-3.12,5.76-4.5,7.29-4.94c0.21-0.06,0.43-0.11,0.65-0.17l0,0l0.01,0
	c4.15-1.07,9.97-2.48,12.92-3.22v0.01l2.12-0.55c-0.94-10.13-5.46-15.07-12.27-15.07c-1.61,0-3.43,0.3-4.64,0.91v-0.3
	c2.02-2.93,8.48-7.06,14.73-7.06c0.5,0,0.98,0.02,1.46,0.04c12.21,0.67,16.65,9.78,16.65,20.95v15.44
	C420.79,60.9,422,62.11,424.42,62.11z M351.58,42.38c0,7.97-2.71,15.12-9.1,19.99l0.01,0c-0.01,0.01-0.02,0.02-0.04,0.02
	c-1.91,1.45-4.16,2.71-6.76,3.71c-2.26,0.91-4.45,1.49-6.5,1.85c-0.07,0.01-0.14,0.03-0.21,0.04V68c-1.02,0.17-2,0.29-2.93,0.36
	c-5.36,0.43-9.08-0.56-9.08-0.56v9.73c0,5.25,2.12,7.16,6.56,7.87v0.71l-22.4,6.64v-6.85v-17.9v-6.9v-25.9
	c0-3.63-0.91-4.84-2.72-6.16l-1.92-1.21v-0.5l20.18-6.05l0.3,0.3v33.1c0,3.13,0.4,6.66,2.32,9.28c0.68,0.98,1.54,1.73,2.5,2.31
	c0.26,0.16,0.53,0.31,0.81,0.44c0.41,0.2,0.83,0.36,1.26,0.5c0.58,0.16,1.18,0.25,1.81,0.25c1.68,0,3.21-0.6,4.4-1.6
	c0.87-0.81,2.65-3.04,3.79-8.53c0.62-3.02,0.97-6.53,0.97-10.32c0-12.92-3.73-19.17-11.4-19.17c-1.61,0-2.99,0.3-4.2,0.91v-0.3
	c2.02-2.93,8.03-7.06,14.29-7.06C346.83,21.39,351.58,30.78,351.58,42.38z M471.79,52.42c-1.31,5.65-7.06,16.55-20.99,16.55
	c-14.83,0-22.2-11-22.2-22.7c0-13.59,8.94-22.86,21.21-24.61v0.84c-3.08,1.46-5.36,6.31-5.36,17.31c0,12.01,5.75,17.76,14.53,17.76
	c6.26,0,9.89-2.32,12.21-5.55L471.79,52.42z M452.38,22.38v-0.87c10.72-0.2,14.46,3.71,15.91,8.09c0.53,1.6,0.55,6.1-4.13,6.59
	c-2.74,0.29-5.24-1.74-5.54-4.41c-0.66-5.83-1.36-7.06-2.3-8.26C455.39,22.32,452.38,22.38,452.38,22.38z M88.33,79.15
	c-0.98,1.87-3,4.13-5.81,5.95c-4,2.58-9.41,4.61-14.96,4.61c-0.72,0-1.44-0.02-2.14-0.07c0,0,0,0,0,0
	c-0.19-0.01-0.38-0.03-0.57-0.04c-5.66-0.44-10.05-1.82-16.09-3.75c-8.12-2.57-12.64-3.8-17.47-3.8c-3.19,0-5.45,0.63-6.88,1.35
	v-0.53c0.87-1.66,2.64-3.51,5.01-5.17l0.01-0.01c0,0,9.78-7.21,10.95-8.09c1.17-0.88,2.51-1.88,3.12-2.37
	c0.61-0.49,1.31-1.22,1.57-1.46c4.13-3.89,6.45-11.65,6.45-27.51c0-16.1-2.46-27.49-10.16-31.8C39.8,5.63,37.75,5.14,36,4.94v0
	c-0.15-0.02-0.3-0.04-0.45-0.05c-0.43-0.04-0.83-0.06-1.17-0.06c-0.69,0-1.35,0.1-1.97,0.21v0c-1.23,0.21-3.59,0.89-5.03,2.12
	C22.67,10.76,20,18.45,20,35.48c0,16,2.56,27.39,10.16,31.8c1.64,0.82,3.59,1.44,5.33,1.64v0.82C13.54,68.81,0,55.27,0,36.71
	C0,16.41,17.01,5.64,32.4,4.09l0,0c0.01,0,0.01,0,0.02,0c0.55-0.05,1.12-0.09,1.7-0.1c0.61-0.01,1.24,0,1.88,0c0,0,0.01,0,0.01,0v0
	C57.96,4.81,71.6,18.35,71.6,36.91c0,14.01-8.02,23.43-18.03,28.49l0.01,0L36.1,74.2c0,0,0.01,0,0.01,0
	c2.84-1.05,5.97-1.71,9.15-1.71c0.72,0,1.44,0.02,2.14,0.07c0,0,0,0,0,0c0.24,0.02,0.48,0.03,0.72,0.05
	c5.58,0.46,9.96,1.83,15.94,3.74c8.12,2.57,12.64,3.8,17.47,3.8c3.19,0,5.14-0.72,6.58-1.44L88.33,79.15z"/>
</svg>
